<svg xmlns="http://www.w3.org/2000/svg" viewBox="0 0 1200 330">
<defs>
  <linearGradient id="bg" x1="0" y1="0" x2="1" y2="1"><stop stop-color="#070914"/><stop offset=".48" stop-color="#11132a"/><stop offset="1" stop-color="#080817"/></linearGradient>
  <linearGradient id="gold" x1="0" y1="0" x2="1" y2="1"><stop stop-color="#fff1a8"/><stop offset=".35" stop-color="#d8b26a"/><stop offset=".7" stop-color="#fff0a0"/><stop offset="1" stop-color="#9a6b27"/></linearGradient>
  <linearGradient id="purple" x1="0" y1="0" x2="1" y2="1"><stop stop-color="#6670ff"/><stop offset="1" stop-color="#25205d"/></linearGradient>
  <linearGradient id="button" x1="0" y1="0" x2="1" y2="1"><stop stop-color="#25266d"/><stop offset="1" stop-color="#111534"/></linearGradient>
  <filter id="glow"><feGaussianBlur stdDeviation="7" result="b"/><feMerge><feMergeNode in="b"/><feMergeNode in="SourceGraphic"/></feMerge></filter>
</defs>
<rect x="5" y="5" width="1190" height="320" rx="38" fill="url(#bg)" stroke="url(#gold)" stroke-width="4"/>
<path d="M0 265 Q240 115 450 300 T850 220 T1220 110" fill="none" stroke="#5b35a8" stroke-opacity=".24" stroke-width="42"/>
<g opacity=".95">
 <circle cx="145" cy="165" r="74" fill="#12152e" stroke="url(#gold)" stroke-width="10"/>
 <circle cx="145" cy="165" r="60" fill="url(#purple)" stroke="#8e95ff" stroke-opacity=".35" stroke-width="3"/>
 <path fill="#fff" transform="translate(100 131) scale(.72)" d="M107.7 8.07A105.15 105.15 0 0 0 81.47 0a72.06 72.06 0 0 0-3.36 6.83 97.68 97.68 0 0 0-29.11 0A72.37 72.37 0 0 0 45.64 0a105.89 105.89 0 0 0-26.25 8.09C2.79 32.65-1.71 56.6.54 80.21a105.73 105.73 0 0 0 32.17 16.15 77.7 77.7 0 0 0 6.89-11.11 68.42 68.42 0 0 1-10.85-5.18c.91-.66 1.8-1.34 2.66-2a75.57 75.57 0 0 0 64.32 0c.87.71 1.76 1.39 2.66 2a68.68 68.68 0 0 1-10.87 5.19 77 77 0 0 0 6.89 11.1 105.25 105.25 0 0 0 32.19-16.14c2.64-27.38-4.51-51.11-18.9-72.15ZM42.45 65.69C36.18 65.69 31 60 31 53s5-12.74 11.43-12.74S54 46 53.89 53s-5.05 12.69-11.44 12.69Zm42.24 0C78.41 65.69 73.25 60 73.25 53s5-12.74 11.44-12.74S96.23 46 96.12 53s-5.04 12.69-11.43 12.69Z"/>
 <circle cx="80" cy="235" r="35" fill="#0d1022" stroke="url(#gold)" stroke-width="5"/><text x="80" y="247" text-anchor="middle" font-size="32" fill="url(#gold)">♛</text>
 <circle cx="205" cy="235" r="29" fill="#15182e" stroke="url(#gold)" stroke-width="5"/><text x="205" y="244" text-anchor="middle" font-size="25" fill="url(#gold)">◈</text>
</g>
<text x="295" y="112" font-family="Arial,sans-serif" font-size="58" font-weight="800" fill="url(#gold)">Discord</text>
<circle cx="530" cy="92" r="22" fill="#5865f2"/><path d="M518 92l8 8 17-20" fill="none" stroke="#fff" stroke-width="6" stroke-linecap="round" stroke-linejoin="round"/>
<text x="295" y="166" font-family="Arial,sans-serif" font-size="27" fill="#bfc2d3">Tu cuenta de Discord está vinculada.</text>
<rect x="295" y="198" width="405" height="62" rx="28" fill="#0d0f1b" stroke="#9a6b27" stroke-width="2"/>
<text x="325" y="238" font-family="Arial,sans-serif" font-size="20" fill="#e6c87a">🎁 Participa en sorteos, eventos y recompensas.</text>
<rect x="745" y="88" width="390" height="112" rx="32" fill="url(#button)" stroke="url(#gold)" stroke-width="4"/>
<text x="790" y="155" font-family="Arial,sans-serif" font-size="42" font-weight="800" fill="#f7df99">🔗</text>
<text x="850" y="154" font-family="Arial,sans-serif" font-size="38" font-weight="800" fill="#fff">Vinculado</text>
<circle cx="1085" cy="144" r="27" fill="#08261c" stroke="#39e58b" stroke-width="4" filter="url(#glow)"/>
<path d="M1072 144l9 9 18-21" fill="none" stroke="#39e58b" stroke-width="6" stroke-linecap="round" stroke-linejoin="round"/>
<g fill="#fff2a6"><text x="1130" y="65" font-size="25">✦</text><text x="700" y="92" font-size="18">✦</text></g>
</svg>